<?xml version="1.0" encoding="UTF-8"?>
<svg width="850px" height="445px" viewBox="0 0 850 445" version="1.1" xmlns="http://www.w3.org/2000/svg" xmlns:xlink="http://www.w3.org/1999/xlink">
    <!-- Generator: Sketch 55.2 (78181) - https://sketchapp.com -->
    <title>Map</title>
    <desc>Created with Sketch.</desc>
    <g id="Map" stroke="none" stroke-width="1" fill="none" fill-rule="evenodd">
        <g id="map" transform="translate(0.000000, 74.000000)" stroke="#333333">
            <g id="Outline" fill-rule="evenodd" stroke-linecap="round" stroke-linejoin="round">
                <polyline id="Path" points="78.0060476 162.317566 125.65743 78.9294626 197.324983 78.9294626 197.324983 62.6116113 449.013215 62.6116113 483.746751 0 671.427946 104.64601 849.935262 104.64601 849.935262 298.825177 0 298.825177 51.4993072 208.703352"></polyline>
                <path d="M78.0060476,162.317566 L171.584026,162.317566" id="Path-3"></path>
                <path d="M253.557174,193.032742 L367.084338,193.032742" id="Path-4"></path>
                <path d="M387.670181,193.032742 L425.640612,193.032742" id="Path-5"></path>
                <path d="M451.568081,193.032742 L512.157548,193.032742" id="Path-6"></path>
                <path d="M532.371557,193.032742 L636.667047,193.032742" id="Path-7"></path>
                <polyline id="Path-8" points="657.312259 193.032742 750.386802 193.032742 750.386802 274.285879"></polyline>
                <polyline id="Path-2" points="220.41623 298.825177 220.41623 208.710573 196.035348 208.710573"></polyline>
                <path d="M175.368839,208.710573 L51.5463541,208.710573" id="Path-9"></path>
                <path d="M193.935829,158.230371 L228.6769,158.230371" id="Path-10"></path>
                <path d="M248.209039,158.230371 L361.591865,158.230371" id="Path-11"></path>
                <path d="M274.139475,62.609222 L274.139475,158.230371" id="Path-12"></path>
                <polyline id="Path-13" points="381.641229 158.230371 429.343272 158.230371 429.343272 62.6099196"></polyline>
                <path d="M584.519302,193.032742 L584.519302,274.285879" id="Path-14"></path>
                <path d="M406.318906,193.032742 L406.318906,298.825177" id="Path-15"></path>
                <path d="M199.338333,94.878519 L199.338333,158.230371" id="Path-16"></path>
            </g>
            <path d="M750.386802,295.065789 L750.339147,298.825177" id="Line-4" stroke-linecap="round" stroke-linejoin="round"></path>
            <g id="Porte" transform="translate(259.081611, 200.827723) rotate(-90.000000) translate(-259.081611, -200.827723) translate(251.211240, 195.338127)" fill-rule="evenodd" stroke-linecap="round" stroke-linejoin="round">
                <g>
                    <path d="M0,0 C0,4.60405118 2.25327223,8.65482634 5.66371681,11" id="Shape" stroke-dasharray="2"></path>
                    <path d="M15.864763,0.0872240838 L5.66371681,11" id="Line-2"></path>
                </g>
            </g>
            <g id="Porte" transform="translate(240.137812, 204.578947) scale(1, -1) translate(-240.137812, -204.578947) translate(233.914729, 200.370257)" fill-rule="evenodd" stroke-linecap="round" stroke-linejoin="round">
                <g>
                    <path d="M0,0 C0,3.34840086 1.68995417,6.29441916 4.24778761,8" id="Shape" stroke-dasharray="2"></path>
                    <path d="M11.8985723,0.0634356973 L4.24778761,8" id="Line-2"></path>
                </g>
            </g>
            <g id="Porte" transform="translate(227.142550, 204.578947) scale(-1, -1) translate(-227.142550, -204.578947) translate(220.370370, 200.370257)" fill-rule="evenodd" stroke-linecap="round" stroke-linejoin="round">
                <g>
                    <path d="M0,0 C0,3.34840086 1.9716132,6.29441916 4.95575221,8" id="Shape" stroke-dasharray="2"></path>
                    <path d="M13.8816677,0.0634356973 L4.95575221,8" id="Line-2"></path>
                </g>
            </g>
            <g id="Porte" transform="translate(445.316537, 188.842105) scale(1, -1) translate(-445.316537, -188.842105) translate(439.093454, 184.633415)" fill-rule="evenodd" stroke-linecap="round" stroke-linejoin="round">
                <g>
                    <path d="M0,0 C0,3.34840086 1.68995417,6.29441916 4.24778761,8" id="Shape" stroke-dasharray="2"></path>
                    <path d="M11.8985723,0.0634356973 L4.24778761,8" id="Line-2"></path>
                </g>
            </g>
            <g id="Porte" transform="translate(432.321275, 188.842105) scale(-1, -1) translate(-432.321275, -188.842105) translate(425.549096, 184.633415)" fill-rule="evenodd" stroke-linecap="round" stroke-linejoin="round">
                <g>
                    <path d="M0,0 C0,3.34840086 1.9716132,6.29441916 4.95575221,8" id="Shape" stroke-dasharray="2"></path>
                    <path d="M13.8816677,0.0634356973 L4.95575221,8" id="Line-2"></path>
                </g>
            </g>
            <g id="Porte" transform="translate(458.311800, 288.935741) scale(1, -1) rotate(-90.000000) translate(-458.311800, -288.935741) translate(452.088717, 284.727050)" fill-rule="evenodd" stroke-linecap="round" stroke-linejoin="round">
                <g>
                    <path d="M0,0 C0,3.34840086 1.68995417,6.29441916 4.24778761,8" id="Shape" stroke-dasharray="2"></path>
                    <path d="M11.8985723,0.0634356973 L4.24778761,8" id="Line-2"></path>
                </g>
            </g>
            <g id="Porte" transform="translate(458.311800, 275.943696) scale(-1, -1) rotate(90.000000) translate(-458.311800, -275.943696) translate(451.539621, 271.735006)" fill-rule="evenodd" stroke-linecap="round" stroke-linejoin="round">
                <g>
                    <path d="M0,0 C0,3.34840086 1.9716132,6.29441916 4.95575221,8" id="Shape" stroke-dasharray="2"></path>
                    <path d="M13.8816677,0.0634356973 L4.95575221,8" id="Line-2"></path>
                </g>
            </g>
            <path d="M246.26938,208.710573 L253.557174,208.710573" id="Line-3" stroke-linecap="round" stroke-linejoin="round"></path>
            <g id="Porte" transform="translate(203.531438, 86.827111) rotate(-90.000000) translate(-203.531438, -86.827111) translate(195.569552, 82.618421)" fill-rule="evenodd" stroke-linecap="round" stroke-linejoin="round">
                <g>
                    <path d="M0,0 C0,3.34840086 2.25327223,6.29441916 5.66371681,8" id="Shape" stroke-dasharray="2"></path>
                    <path d="M15.864763,0.0634356973 L5.66371681,8" id="Line-2"></path>
                </g>
            </g>
            <path d="M197.399871,78.9586903 L199.321705,78.9586903" id="Line-2" stroke-linecap="round" stroke-linejoin="round"></path>
            <g id="Porte" transform="translate(238.399009, 152.244798) scale(-1, -1) translate(-238.399009, -152.244798) translate(228.606804, 146.206242)" fill-rule="evenodd" stroke-linecap="round" stroke-linejoin="round">
                <g>
                    <path d="M0,0 C0,5.02260129 2.81659028,9.44162873 7.07964602,12" id="Shape" stroke-dasharray="2"></path>
                    <path d="M19.8309538,0.0951535459 L7.07964602,12" id="Line-2"></path>
                </g>
            </g>
            <g id="Porte" transform="translate(371.737726, 152.153305) scale(1, -1) translate(-371.737726, -152.153305) translate(361.670973, 146.023256)" fill-rule="evenodd" stroke-linecap="round" stroke-linejoin="round">
                <g>
                    <path d="M0,0 C0,5.02260129 2.81659028,9.44162873 7.07964602,12" id="Shape" stroke-dasharray="2"></path>
                    <path d="M19.8309538,0.0951535459 L7.07964602,12" id="Line-2"></path>
                </g>
            </g>
            <g id="Porte" transform="translate(522.098407, 199.089351) scale(-1, 1) translate(-522.098407, -199.089351) translate(511.940138, 193.050796)" fill-rule="evenodd" stroke-linecap="round" stroke-linejoin="round">
                <g>
                    <path d="M0,0 C0,5.02260129 2.81659028,9.44162873 7.07964602,12" id="Shape" stroke-dasharray="2"></path>
                    <path d="M19.8309538,0.0951535459 L7.07964602,12" id="Line-2"></path>
                </g>
            </g>
            <g id="Porte" transform="translate(636.767873, 193.050796)" fill-rule="evenodd" stroke-linecap="round" stroke-linejoin="round">
                <g>
                    <path d="M0,0 C0,5.02260129 2.9574198,9.44162873 7.43362832,12" id="Shape" stroke-dasharray="2"></path>
                    <path d="M20.8225015,0.0951535459 L7.43362832,12" id="Line-2"></path>
                </g>
            </g>
            <g id="Porte" transform="translate(744.390612, 284.818543) rotate(90.000000) translate(-744.390612, -284.818543) translate(733.957795, 278.688494)" fill-rule="evenodd" stroke-linecap="round" stroke-linejoin="round">
                <g>
                    <path d="M0,0 C0,5.02260129 2.9574198,9.44162873 7.43362832,12" id="Shape" stroke-dasharray="2"></path>
                    <path d="M20.8225015,0.0951535459 L7.43362832,12" id="Line-2"></path>
                </g>
            </g>
            <path d="M584.285381,294.974296 L584.237726,298.733684" id="Line-4" stroke-linecap="round" stroke-linejoin="round"></path>
            <path d="M454.265065,294.932631 L454.21741,298.692019" id="Line-4" stroke-linecap="round" stroke-linejoin="round"></path>
            <path d="M454.21741,269.173195 L454.265065,193.032742" id="Line-5" stroke-linecap="round" stroke-linejoin="round"></path>
            <g id="Porte" transform="translate(578.289190, 284.727050) rotate(90.000000) translate(-578.289190, -284.727050) translate(567.856374, 278.597001)" fill-rule="evenodd" stroke-linecap="round" stroke-linejoin="round">
                <g>
                    <path d="M0,0 C0,5.02260129 2.9574198,9.44162873 7.43362832,12" id="Shape" stroke-dasharray="2"></path>
                    <path d="M20.8225015,0.0951535459 L7.43362832,12" id="Line-2"></path>
                </g>
            </g>
            <g id="Porte" transform="translate(366.978898, 193.050796)" fill-rule="evenodd" stroke-linecap="round" stroke-linejoin="round">
                <g>
                    <path d="M0,0 C0,5.02260129 2.9574198,9.44162873 7.43362832,12" id="Shape" stroke-dasharray="2"></path>
                    <path d="M20.8225015,0.0951535459 L7.43362832,12" id="Line-2"></path>
                </g>
            </g>
            <g id="Porte" transform="translate(182.940353, 151.604345) scale(1, -1) translate(-182.940353, -151.604345) translate(171.683893, 144.925337)" fill-rule="evenodd" stroke-linecap="round" stroke-linejoin="round">
                <g>
                    <path d="M0,0 C0,5.44115139 3.23907883,10.2284311 8.14159292,13" id="Shape" stroke-dasharray="2"></path>
                    <path d="M22.8055969,0.103083008 L8.14159292,13" id="Line-2"></path>
                </g>
            </g>
            <path d="M171.584026,158.230371 L171.584026,162.317566" id="Line" stroke-linecap="square"></path>
            <g id="Porte" transform="translate(175.527562, 208.604651)" fill-rule="evenodd" stroke-linecap="round" stroke-linejoin="round">
                <g>
                    <path d="M0,0 C0,5.44115139 2.9574198,10.2284311 7.43362832,13" id="Shape" stroke-dasharray="2"></path>
                    <path d="M20.8225015,0.103083008 L7.43362832,13" id="Line-2"></path>
                </g>
            </g>
        </g>
        <g id="Légende" transform="translate(61.000000, 0.000000)">
            <g id="Pointer" transform="translate(0.000000, 328.000000)">
                <circle id="Oval" fill="#333333" fill-rule="evenodd" cx="2.5" cy="2.5" r="2.5"></circle>
                <circle id="Oval" fill="#333333" fill-rule="evenodd" cx="2.5" cy="114.5" r="2.5"></circle>
                <path d="M2.5,2.50909091 L2.5,113.490909" id="Line" stroke="#333333" stroke-width="2" stroke-linecap="square"></path>
            </g>
            <g id="Pointer" transform="translate(177.000000, 88.000000)">
                <circle id="Oval" fill="#333333" fill-rule="evenodd" cx="2.5" cy="2.5" r="2.5"></circle>
                <circle id="Oval" fill="#333333" fill-rule="evenodd" cx="2.5" cy="112.5" r="2.5"></circle>
                <path d="M2.5,2.5 L2.5,111.5" id="Line" stroke="#333333" stroke-width="2" stroke-linecap="square"></path>
            </g>
            <g id="Pointer" transform="translate(428.000000, 328.000000)">
                <circle id="Oval" fill="#333333" fill-rule="evenodd" cx="2.5" cy="2.5" r="2.5"></circle>
                <circle id="Oval" fill="#333333" fill-rule="evenodd" cx="2.5" cy="112.5" r="2.5"></circle>
                <path d="M2.5,2.5 L2.5,111.5" id="Line" stroke="#333333" stroke-width="2" stroke-linecap="square"></path>
            </g>
            <g id="Half-pointer" transform="translate(250.000000, 318.000000)">
                <circle id="Oval" fill="#333333" fill-rule="evenodd" cx="2.5" cy="2.5" r="2.5"></circle>
                <path d="M2.5,2.08928571 L2.5,22" id="Line" stroke="#333333" stroke-width="2" stroke-linecap="round" stroke-linejoin="round"></path>
            </g>
            <g id="Half-pointer" transform="translate(606.000000, 318.000000)">
                <circle id="Oval" fill="#333333" fill-rule="evenodd" cx="2.5" cy="2.5" r="2.5"></circle>
                <path d="M2.5,2.04464286 L2.5,12" id="Line" stroke="#333333" stroke-width="2" stroke-linecap="round" stroke-linejoin="round"></path>
            </g>
            <g id="Half-pointer" transform="translate(288.000000, 181.000000)">
                <circle id="Oval" fill="#333333" fill-rule="evenodd" cx="2.5" cy="2.5" r="2.5"></circle>
                <path d="M2.5,2.5 L2.5,114" id="Line" stroke="#333333" stroke-width="2" stroke-linecap="round" stroke-linejoin="round"></path>
            </g>
            <g id="Pointer" transform="translate(69.000000, 0.000000)">
                <circle id="Oval" fill="#333333" fill-rule="evenodd" cx="2.5" cy="2.5" r="2.5"></circle>
                <circle id="Oval" fill="#333333" fill-rule="evenodd" cx="2.5" cy="200.5" r="2.5"></circle>
                <path d="M2.5,2.9 L2.5,199.1" id="Line" stroke="#333333" stroke-width="2" stroke-linecap="square"></path>
            </g>
            <path d="M286.090461,320.48697 L435.090461,320.48697" id="Line" stroke="#333333" stroke-width="2" stroke-linecap="round" stroke-linejoin="round" transform="translate(360.590461, 320.486970) rotate(20.000000) translate(-360.590461, -320.486970) "></path>
            <path d="M246.884313,372.327373 L435.884313,372.327373" id="Line" stroke="#333333" stroke-width="2" stroke-linecap="round" stroke-linejoin="round" transform="translate(341.384313, 372.327373) rotate(20.000000) translate(-341.384313, -372.327373) "></path>
            <path d="M424.884313,362.327373 L613.884313,362.327373" id="Line" stroke="#333333" stroke-width="2" stroke-linecap="round" stroke-linejoin="round" transform="translate(519.384313, 362.327373) scale(-1, 1) rotate(20.000000) translate(-519.384313, -362.327373) "></path>
            <g id="Pointer" transform="translate(375.000000, 2.000000)">
                <circle id="Oval" fill="#333333" fill-rule="evenodd" cx="2.5" cy="2.5" r="2.5"></circle>
                <circle id="Oval" fill="#333333" fill-rule="evenodd" cx="2.5" cy="297.5" r="2.5"></circle>
                <path d="M2.5,3.34090909 L2.5,295.659091" id="Line" stroke="#333333" stroke-width="2" stroke-linecap="square"></path>
            </g>
        </g>
    </g>
</svg>